<?xml version="1.0" encoding="UTF-8"?>
<svg id="_레이어_1" data-name="레이어_1" xmlns="http://www.w3.org/2000/svg" version="1.1" viewBox="0 0 40 40">
  <!-- Generator: Adobe Illustrator 29.1.0, SVG Export Plug-In . SVG Version: 2.1.0 Build 142)  -->
  <defs>
    <style>
      .st0 {
        fill: #43a0ff;
      }

      .st1 {
        fill: #eefdff;
      }

      .st2 {
        fill: #007fff;
      }

      .st3 {
        fill: #b5dd24;
      }

      .st4 {
        fill: #a6d6f4;
      }
    </style>
  </defs>
  <g>
    <path class="st3" d="M33.9,10.1c-.3-.8-.6-1.6-1-2.4-1.4-2.7-3.5-4.7-6.2-6.1-1.4-.7-3-1.2-4.6-1.5-.4,0-.8-.1-1.2-.1,0,0,0,0-.1,0h-1.6c-.1,0-.3,0-.5,0-3.4.3-6.4,1.7-8.8,4-1.9,1.8-3.3,4-3.9,6.5-.4,1.4-.5,2.9-.4,4.3.1,2.3.7,4.5,1.7,6.6.6,1.3,2.8,5.4,3.2,6,1.3,2.3,2.8,4.5,4.3,6.7,1.1,1.6,2.3,3.2,3.4,4.8.2.3.6.6.9.8.2,0,.4.1.6.2h.8s0,0,0,0c.5,0,1-.3,1.3-.7.3-.3.5-.6.7-.9,1.1-1.5,2.1-3,3.2-4.5.7-1,1.3-2,2-2.9.9-1.5,1.9-2.9,2.7-4.5.1-.2.4-.7.4-.7.8-1.5,1.6-2.9,2.2-4.5.6-1.4,1.1-2.8,1.4-4.3.5-2.3.3-4.6-.4-6.8Z"/>
    <path class="st1" d="M19.1,0h1.6s0,0,.1,0c.4,0,.8,0,1.2.1,1.6.2,3.1.7,4.6,1.5,2.7,1.4,4.8,3.4,6.2,6.1.4.8.7,1.5,1,2.4.7,2.2.9,4.5.4,6.8-.3,1.5-.8,2.9-1.4,4.3-.7,1.5-1.4,3-2.2,4.5,0,0,0,0,0,.1-.1-.1-.3-.1-.4-.2-.5-.1-1.1,0-1.6,0-1,.2-2,.6-3,1-1.2.6-2.4.8-3.7.6-.9-.1-1.8-.5-2.7-.8-1.2-.5-2.3-1.1-3.4-1.7-1.1-.6-2.3-.8-3.6-.6-1.1.2-2.2.7-3.1,1.4,0,0,0,0,0-.1-.7-1.3-1.4-2.5-1.9-3.9-1-2.1-1.6-4.3-1.7-6.6,0-1.5,0-2.9.4-4.3.7-2.6,2-4.7,3.9-6.5C12.3,1.7,15.3.4,18.7,0c.2,0,.3,0,.5,0Z"/>
    <path class="st3" d="M20.6,1c0,0,.2,0,.3,0s0,0,0,0c.3,0,.7,0,1.1.1,1.5.2,2.9.7,4.3,1.4,2.5,1.3,4.5,3.2,5.8,5.7.4.7.7,1.4.9,2.2.7,2,.8,4.2.4,6.3-.2,1.2-.7,2.5-1.4,4.1-.6,1.4-1.3,2.8-2.2,4.4h0c0,.2-.3.5-.3.7-.8,1.4-1.7,2.8-2.7,4.4-.6.9-1.3,1.9-1.9,2.9-1.1,1.6-2.2,3.1-3.2,4.5,0,0-.1.2-.2.3-.1.2-.3.4-.4.6-.2.2-.5.4-.8.4,0,0,0,0,0,0h-.5s0,0,0,0c-.1,0-.2,0-.3,0-.2-.1-.4-.3-.6-.5-1.2-1.6-2.4-3.2-3.4-4.8-1.5-2.2-2.9-4.5-4.2-6.6-.4-.6-2.5-4.6-3.1-5.9-1-2.2-1.5-4.2-1.6-6.3,0-1.4,0-2.7.4-4,.6-2.3,1.8-4.3,3.7-6,2.3-2.2,5.1-3.4,8.3-3.7h0c.1,0,.3,0,.4,0h1.3M20.8,0h-1.6c-.1,0-.3,0-.5,0-3.4.3-6.4,1.7-8.8,4-1.9,1.8-3.3,4-3.9,6.5-.4,1.4-.5,2.9-.4,4.3.1,2.3.7,4.5,1.7,6.6.6,1.3,2.8,5.4,3.2,6,1.3,2.3,2.8,4.5,4.3,6.7,1.1,1.6,2.3,3.2,3.4,4.8.2.3.6.6.9.8.2,0,.4.1.6.2h.8s0,0,0,0c.5,0,1-.3,1.3-.7.3-.3.5-.6.7-.9,1.1-1.5,2.1-3,3.2-4.5.7-1,1.3-2,2-2.9.9-1.5,1.9-2.9,2.7-4.5.1-.2.4-.7.4-.7.8-1.5,1.6-2.9,2.2-4.5.6-1.4,1.1-2.8,1.4-4.3.5-2.3.3-4.6-.4-6.8-.3-.8-.6-1.6-1-2.4-1.4-2.7-3.5-4.7-6.2-6.1-1.4-.7-3-1.2-4.6-1.5-.4,0-.8-.1-1.2-.1,0,0,0,0,0,0,0,0,0,0,0,0s0,0,0,0h0Z"/>
  </g>
  <g>
    <path class="st0" d="M15.7,9.4c-.7,1.3-2.4,5-2.4,10.9s.2.7.6.8c1.5.4,5.6,1.3,7.6,1.3h3.7c.4,0,.8-.3.8-.7,0-1.9.4-7.1.8-10,0-.4-.2-.8-.7-.9l-3-.4-6.5-1.3c-.3,0-.7,0-.8.4Z"/>
    <path class="st2" d="M21.5,22.3h3.7c.4,0,.8-.3.8-.7,0-1.9.4-7.1.8-10,0-.4-.2-.8-.7-.9l-3-.4s-1.6,4.5-1.6,12.1Z"/>
    <path class="st2" d="M24.1,10.9s0,0-.1,0c-.3,0-.5-.3-.4-.6.1-.6.3-2.5-.4-3.5-.2-.4-.6-.6-1-.7-2.2-.4-3.5,3.1-3.6,3.2-.1.3-.4.4-.7.3-.3-.1-.4-.4-.3-.7,0-.2,1.7-4.4,4.7-3.9.7.1,1.3.5,1.7,1.1,1.1,1.6.6,4.2.5,4.3,0,.3-.3.4-.5.4Z"/>
    <path class="st0" d="M16.5,9c-.3,0-.7,0-.8.4-.7,1.3-2.4,5-2.4,10.9,0,.4.2.7.6.8,1.5.4,5.6,1.3,7.6,1.3,0-7.6,1.6-12.1,1.6-12.1l-6.5-1.3Z"/>
    <path class="st4" d="M17.8,16.5c-1.4-1.3-3.1-1.1-4.1-.8-.2,1.3-.4,2.8-.4,4.5,0,.4.2.7.6.8,1.5.4,5.6,1.3,7.6,1.3,0-2.1.1-3.9.3-5.5-.8.5-2.4,1-4-.4Z"/>
  </g>
</svg>